<svg version="1.1" id="logo_le_verger_de_fred" xmlns="http://www.w3.org/2000/svg" xmlns:xlink="http://www.w3.org/1999/xlink" x="0px" y="0px" viewBox="-1000.001 127.508 1000.001 744.983"
	 enable-background="new -1000.001 127.508 1000.001 744.983" xml:space="preserve">
	<path fill="#FFFFFF" d="M-303.382,626.646l-1.306,1.308c-1.021,1.458-1.863,3.021-2.505,4.644c-0.683,1.731-1.345,3.462-1.98,5.19
		c-1.291,3.227-2.545,6.425-3.779,9.62c-1.227,3.181-2.399,6.443-3.482,9.696c-2.093,5.726-4.071,11.527-5.896,17.273
		c-0.882,2.778-1.765,5.569-2.647,8.368c0.56-1.05,1.113-2.099,1.658-3.142c2.154-4.13,4.318-8.457,6.433-12.865l0.002-0.007
		c1.55-3.191,3.093-6.462,4.585-9.72c1.499-3.269,2.948-6.581,4.309-9.844c1.169-2.974,2.414-6.222,3.69-9.637
		c1.211-3.255,1.835-6.481,1.851-9.594c-0.09-0.419-0.155-0.99-0.2-1.742C-302.932,626.285-303.17,626.434-303.382,626.646z"/>
	<path fill="#FFFFFF" d="M-350.541,697.521c-1.14-0.507-2.222-0.761-3.261-0.761c-1.105,0-2.161,0.287-3.188,0.861
		c-2.145,1.203-3.971,2.811-5.428,4.782c-1.87,2.672-3.599,5.56-5.12,8.563c-1.536,3.025-2.958,6.072-4.223,9.058
		c-1.353,3.247-2.664,6.58-3.893,9.902c-1.222,3.308-2.346,6.723-3.337,10.147c-0.449,1.525-0.834,3.065-1.146,4.584
		c-0.325,1.567-0.669,3.13-1.036,4.694c-0.358,1.519-0.65,3.188-0.872,4.966c-0.201,1.612,0.048,3.017,0.764,4.288
		c0.635,1.057,1.386,1.631,2.28,1.729c1.05,0.119,2.166-0.066,3.32-0.543c1.255-0.52,2.479-1.197,3.635-2.013
		c1.18-0.829,2.125-1.597,2.813-2.284c2.418-2.33,4.636-4.931,6.604-7.746c1.997-2.864,3.927-5.781,5.732-8.669
		c0.801-1.425,1.626-2.869,2.452-4.292c0.802-1.379,1.57-2.852,2.29-4.379c0.456-0.824,0.844-1.734,1.188-2.766
		c0.367-1.103,0.832-2.098,1.384-2.962c0.623-2.857,1.227-5.696,1.809-8.511c0.589-2.85,1.25-5.752,1.967-8.627
		c-0.016-2.097-0.406-4.138-1.161-6.071C-347.695,699.619-348.862,698.325-350.541,697.521z"/>
	<path fill="#FFFFFF" d="M-653.884,731.046c1.818,1.076,3.751,1.477,5.912,1.234c2.951-0.426,5.54-1.711,7.693-3.822
		c2.247-2.2,4.1-4.611,5.508-7.165c0.799-1.417,1.496-2.835,2.078-4.22c0.589-1.406,1.158-2.889,1.693-4.402
		c0.534-1.515,1.062-3.116,1.563-4.76c0.47-1.54,0.708-3.098,0.708-4.628c0-2.185-0.677-3.884-2.069-5.198
		c-1.387-1.307-3.167-1.863-5.438-1.702c-1.346,0.16-2.654,0.617-3.838,1.354c-1.235,0.766-2.385,1.72-3.418,2.836
		c-1.051,1.141-2.004,2.381-2.832,3.689c-0.868,1.368-1.666,2.646-2.394,3.83c-3.416,5.752-6.341,12.058-8.685,18.73l-0.126,0.316
		C-656.772,728.765-655.577,730.046-653.884,731.046z"/>
	<path fill="#FFFFFF" d="M-661.825,666.738l0.002-0.007c1.551-3.191,3.094-6.462,4.586-9.72c1.499-3.269,2.948-6.581,4.308-9.844
		c1.169-2.974,2.414-6.222,3.69-9.637c1.213-3.255,1.837-6.481,1.853-9.594c-0.09-0.419-0.156-0.99-0.201-1.742
		c-0.281,0.09-0.52,0.238-0.731,0.45l-1.307,1.308c-1.021,1.458-1.863,3.021-2.505,4.644c-0.683,1.731-1.345,3.462-1.981,5.19
		c-1.29,3.227-2.545,6.425-3.777,9.62c-1.228,3.181-2.399,6.443-3.483,9.696c-2.092,5.726-4.071,11.527-5.895,17.273
		c-0.884,2.778-1.766,5.569-2.648,8.368c0.561-1.05,1.113-2.099,1.658-3.142C-666.103,675.474-663.94,671.146-661.825,666.738z"/>
	<path fill="#FFFFFF" d="M-494.015,558.195c2.237,1.323,4.614,1.818,7.269,1.517c3.608-0.518,6.772-2.09,9.403-4.67
		c2.723-2.67,4.971-5.593,6.681-8.688c0.967-1.721,1.813-3.437,2.516-5.111c0.711-1.698,1.399-3.486,2.045-5.318
		c0.648-1.834,1.283-3.769,1.89-5.749c0.573-1.88,0.863-3.781,0.863-5.646c0-2.698-0.839-4.8-2.563-6.427
		c-1.72-1.621-3.921-2.312-6.726-2.112c-1.666,0.199-3.274,0.761-4.728,1.663c-1.506,0.932-2.906,2.098-4.166,3.459
		c-1.278,1.386-2.436,2.894-3.439,4.479c-1.047,1.652-2.01,3.195-2.889,4.622c-4.127,6.947-7.66,14.565-10.493,22.629l-0.184,0.46
		C-497.614,555.323-496.095,556.967-494.015,558.195z"/>
	<path fill="#FFFFFF" d="M-343.573,519.486c-0.822-1.017-1.842-1.75-3.115-2.242c-1.039-0.321-2.027-0.483-2.964-0.483
		c-1.604,0-3.061,0.473-4.391,1.432c-2.251,1.623-4.192,3.672-5.769,6.089c-4.136,6.526-7.867,13.604-11.084,21.02
		c-3.223,7.428-5.905,15.006-7.976,22.526c-0.332,1.217-0.753,2.624-1.255,4.181c-0.483,1.506-0.892,3.028-1.214,4.528
		c-0.312,1.459-0.443,2.901-0.39,4.289c0.046,1.296,0.39,2.38,1.049,3.318c1.066,1.659,2.121,1.814,2.814,1.784
		c1.338-0.049,2.698-0.402,4.046-1.053c1.396-0.674,2.771-1.57,4.081-2.672c1.354-1.138,2.416-2.092,3.159-2.832
		c2.833-2.618,5.371-5.511,7.577-8.632c2.242-3.174,4.371-6.436,6.327-9.696c0.314-0.521,0.635-1.109,0.953-1.748
		c0.308-0.614,0.665-1.194,1.063-1.73l0.032-0.1c1.335-4.227,2.729-8.439,4.146-12.522c1.431-4.131,3.055-8.303,4.827-12.399
		l0.287-0.724c0.299-1.325,0.452-2.777,0.452-4.315c0-1.531-0.232-3.006-0.69-4.379
		C-342.056,521.768-342.719,520.544-343.573,519.486z"/>
	<path fill="#FFFFFF" d="M-390.393,621.573l-0.016,0.015c-2.908,2.8-5.532,5.942-7.796,9.338c-2.263,3.395-4.177,7.03-5.688,10.809
		c-0.632,1.792-1.205,3.761-1.69,5.808c-0.472,1.991-0.685,3.986-0.634,5.932c0.054,1.931,0.397,3.86,1.022,5.733
		c0.6,1.803,1.617,3.379,3.024,4.686c1.394,1.291,2.861,2.094,4.361,2.384c1.559,0.301,3.169,0.275,4.783-0.078
		c1.633-0.359,3.211-1.033,4.693-2.002c1.521-0.999,2.872-2.14,4.018-3.388c2.777-2.885,4.902-6.139,6.334-9.688
		c1.466-3.638,2.818-7.425,4.025-11.257c2.094-6.837,4.067-13.673,5.862-20.308l4.85-17.955c-4.49,2.758-8.937,5.617-13.244,8.521
		C-381.476,613.481-386.155,617.335-390.393,621.573z"/>
	<path fill="#FFFFFF" d="M-691.905,701.474c-0.727-1.854-1.895-3.148-3.573-3.952c-1.138-0.507-2.221-0.761-3.26-0.761
		c-1.105,0-2.161,0.287-3.187,0.861c-2.146,1.203-3.972,2.811-5.429,4.782c-1.869,2.672-3.598,5.56-5.12,8.563
		c-1.536,3.025-2.957,6.072-4.224,9.058c-1.352,3.247-2.662,6.58-3.892,9.902c-1.223,3.308-2.346,6.723-3.337,10.147
		c-0.45,1.525-0.835,3.065-1.146,4.584c-0.324,1.567-0.669,3.13-1.036,4.694c-0.357,1.519-0.65,3.188-0.872,4.966
		c-0.201,1.612,0.048,3.017,0.764,4.288c0.636,1.057,1.387,1.631,2.28,1.729c1.05,0.119,2.166-0.066,3.32-0.543
		c1.256-0.52,2.479-1.197,3.635-2.013c1.18-0.829,2.126-1.597,2.813-2.284c2.419-2.33,4.637-4.931,6.604-7.746
		c1.998-2.864,3.927-5.781,5.732-8.669c0.801-1.425,1.626-2.869,2.452-4.292c0.801-1.379,1.57-2.852,2.29-4.379
		c0.455-0.824,0.845-1.734,1.188-2.766c0.366-1.103,0.831-2.098,1.384-2.962c0.622-2.857,1.226-5.696,1.808-8.511
		c0.588-2.85,1.249-5.752,1.967-8.627C-690.76,705.448-691.149,703.407-691.905,701.474z"/>
	<path fill="#FFFFFF" d="M-294.146,558.195c2.236,1.323,4.612,1.818,7.268,1.517c3.609-0.518,6.772-2.09,9.403-4.67
		c2.724-2.67,4.972-5.593,6.681-8.688c0.968-1.721,1.813-3.437,2.516-5.111c0.712-1.698,1.399-3.486,2.046-5.318
		c0.647-1.834,1.283-3.769,1.89-5.749c0.572-1.88,0.863-3.781,0.863-5.646c0-2.698-0.839-4.8-2.564-6.427
		c-1.719-1.621-3.919-2.312-6.726-2.112c-1.667,0.199-3.274,0.761-4.728,1.663c-1.506,0.932-2.906,2.098-4.165,3.459
		c-1.279,1.386-2.436,2.894-3.44,4.479c-1.046,1.652-2.009,3.195-2.889,4.622c-4.127,6.947-7.659,14.565-10.493,22.629l-0.184,0.46
		C-297.745,555.323-296.227,556.967-294.146,558.195z"/>
	<path fill="#FFFFFF" d="M-825.548,591.929c-1.22,0.815-2.356,1.902-3.38,3.233c-1.021,1.326-1.74,2.686-2.141,4.039
		c-0.37,1.248-0.307,2.384,0.195,3.477c0.479,1.045,1.69,1.915,3.605,2.585c1.724,0.609,3.495,0.844,5.268,0.688
		c1.816-0.155,3.608-0.577,5.327-1.254c1.753-0.692,3.479-1.556,5.131-2.563c1.646-1.013,3.123-2.113,4.387-3.27
		c3.019-2.631,5.748-5.586,8.143-8.809c-4.195-1.502-8.5-2.287-12.815-2.338C-816.51,587.646-821.117,589.083-825.548,591.929z"/>
	<path fill="#FFFFFF" d="M-63.33,495.745c-45.467-5.859-76.072-21.149-120.646-39.582c-73.976-30.59-157.803-72.645-310.145-72.645
		c-2.444,0-4.887,0.108-7.364,0.108h-0.069h-0.071c-2.456,0-4.915-0.108-7.336-0.108c-151.396-0.004-233.798,41.831-306.507,72.265
		c-44.502,18.626-75.731,34.115-122.243,39.99c-6.505,0.822-11.389,6.349-11.389,12.904v229.727c0,5.843,3.848,11.04,9.48,12.593
		c36.604,10.091,69.896,34.701,92.029,68.882c2.384,3.684,6.428,5.952,10.814,5.952h677.011c4.463,0,8.578-2.326,10.967-6.097
		c22.103-34.883,52.222-58.757,87.479-68.685c5.561-1.566,9.354-6.706,9.354-12.483v-229.92
		C-51.963,502.1-56.836,496.582-63.33,495.745z M-679.369,510.231c3.848,0,7.202,1.013,9.969,3.012
		c2.717,1.969,4.883,4.459,6.438,7.397c1.547,2.922,2.506,6.171,2.848,9.656c0.343,3.481,0.053,6.871-0.863,10.074
		c-0.9,3.26-2.24,6.513-3.979,9.654c-1.754,3.164-3.9,6.027-6.383,8.509c-2.493,2.494-5.305,4.587-8.356,6.223
		c-3.109,1.673-6.551,2.578-10.229,2.69c-3.53,0.23-7.005-0.354-10.289-1.736c-2.619-1.104-4.846-2.697-6.642-4.75
		c-0.626,2.471-1.156,4.962-1.581,7.427c-0.543,3.139-0.871,6.375-0.979,9.616c0.001,1.692,0.109,3.429,0.323,5.128
		c0.206,1.646,0.646,3.177,1.31,4.553c0.657,1.364,1.549,2.563,2.652,3.563c1.076,0.979,2.476,1.676,4.163,2.07
		c3.557,0.84,7.17,0.786,10.737-0.158c3.624-0.959,7.084-2.499,10.283-4.578c3.228-2.099,6.255-4.608,8.997-7.458
		c2.759-2.866,5.144-5.744,7.089-8.555c1.505-2.259,2.905-4.618,4.151-7.002c1.254-2.4,2.439-4.883,3.525-7.377
		c0.335-0.9,0.843-1.886,1.487-2.883c0.886-1.369,2.347-1.728,4.013-0.991c0.707,0.254,1.039,0.692,1.193,1.019
		c0.239,0.51,0.234,1.099-0.015,1.753c-0.287,0.744-0.604,1.468-0.946,2.149c-1.651,3.523-3.443,6.996-5.326,10.319
		c-1.897,3.346-4.042,6.562-6.374,9.56c-2.346,3.018-4.979,5.82-7.829,8.336c-2.873,2.533-6.149,4.727-9.742,6.522
		c-3.358,1.792-6.96,3.108-10.678,3.895c-3.253,0.688-6.546,1.035-9.806,1.035c-0.456,0-0.911-0.007-1.365-0.02
		c-4.068-0.117-7.672-1.36-10.707-3.695c-2.977-2.285-5.412-5.185-7.239-8.614c-2.037-3.846-3.356-7.974-3.922-12.273
		c-0.559-4.262-0.587-8.635-0.084-13c0.503-4.361,1.466-8.692,2.86-12.871c1.391-4.173,3.055-8.096,4.95-11.661
		c1.793-3.142,3.937-6.327,6.385-9.499c2.465-3.194,5.277-6.092,8.358-8.611c3.097-2.534,6.496-4.592,10.104-6.112
		C-687.223,511.011-683.354,510.231-679.369,510.231z M-755.232,618.572c-3.806-1.623-7.44-3.696-10.801-6.16
		c-2.666-1.89-5.261-3.976-7.697-6.191c-2.386-2.17-4.862-4.207-7.362-6.055c-1.754-1.314-3.571-2.582-5.406-3.77
		c-1.627-1.05-3.354-2.068-5.143-3.035c-1.413,1.563-2.924,3.051-4.503,4.433c-1.775,1.553-3.631,3.071-5.515,4.513
		c-3.374,2.474-7.169,4.656-11.298,6.496c-4.232,1.889-8.589,2.611-12.952,2.154c-2.257-0.239-4.249-0.906-5.923-1.982
		c-1.685-1.083-3.001-2.461-3.91-4.1c-0.925-1.663-1.33-3.503-1.207-5.461c0.118-1.937,0.844-3.947,2.153-5.971
		c1.308-1.788,2.864-3.313,4.661-4.591c1.767-1.252,3.669-2.319,5.656-3.17c1.971-0.845,4.031-1.532,6.123-2.042
		c2.059-0.501,4.135-0.87,6.172-1.098c5.988-0.855,12.139-0.887,18.265-0.091c2.347-3.952,4.397-8.146,6.099-12.481
		c1.809-4.604,3.559-9.268,5.201-13.865c1.754-4.827,3.42-9.66,4.954-14.367c1.508-4.638,3.065-9.53,4.628-14.549
		c1.325-4.639,3.119-9.769,5.324-15.222c2.21-5.471,4.847-10.915,7.838-16.176c2.996-5.27,6.425-10.273,10.194-14.874
		c3.805-4.643,8.063-8.475,12.661-11.391c4.629-2.936,9.755-4.798,15.235-5.533c5.507-0.735,11.448,0.149,17.66,2.632
		c1.533,0.548,3.154,1.229,4.781,2.013c1.679,0.813,3.183,1.815,4.471,2.982c0.684,0.686,1.011,1.411,1.011,2.192
		c0,0.681-0.158,1.302-0.471,1.85c-0.365,0.639-0.938,1.069-1.659,1.248c-0.471,0.117-1.38,0.154-2.284-0.883
		c-0.849-0.536-1.696-1.141-2.521-1.799c-0.771-0.617-1.64-1.197-2.585-1.724c-1.874-0.935-3.873-1.719-5.9-2.306
		c-1.993-0.575-4.065-0.868-6.157-0.868c-4.136-0.105-7.884,0.692-11.185,2.365c-3.357,1.707-6.437,3.978-9.153,6.747
		c-2.743,2.8-5.168,5.985-7.205,9.473c-2.064,3.531-3.823,7.075-5.228,10.536c-2.84,6.55-5.188,13.264-6.989,19.979
		c-1.804,6.721-3.784,13.607-5.885,20.469c-2.432,8.067-5.513,15.997-9.159,23.563c-3.654,7.584-8.148,14.803-13.357,21.452
		l-0.529,0.708c3.48,0.957,6.915,2.204,10.228,3.713c3.815,1.744,7.396,3.931,10.644,6.504c2.999,2.333,5.949,4.891,8.763,7.596
		c2.788,2.677,5.714,5.244,8.695,7.631c2.978,2.379,6.127,4.487,9.362,6.268c3.171,1.744,6.712,2.844,10.527,3.268
		c3.047,0.316,6.12,0.074,9.126-0.717c2.96-0.777,5.622-2.229,7.913-4.309c2.153-2.156,3.739-4.637,4.675-7.339
		c0.344-0.865,0.84-1.423,1.492-1.702c0.652-0.281,1.399-0.257,2.22,0.072c0.823,0.328,1.369,0.831,1.622,1.492
		c0.259,0.678,0.178,1.444-0.239,2.281l-0.014,0.024c-1.933,3.636-4.441,6.748-7.454,9.251c-3.036,2.519-6.6,4.315-10.59,5.342
		c-3.041,0.879-6.186,1.322-9.375,1.322c-1.299,0-2.604-0.073-3.913-0.221c-4.45-0.5-8.852-1.375-13.082-2.6
		C-747.494,621.515-751.442,620.188-755.232,618.572z M-611.926,730.348c-0.241,0.626-0.506,1.23-0.792,1.8
		c-1.365,2.916-2.854,5.799-4.422,8.566c-1.576,2.78-3.359,5.455-5.299,7.949c-1.952,2.509-4.145,4.842-6.517,6.935
		c-2.394,2.113-5.125,3.943-8.116,5.438c-2.796,1.491-5.798,2.587-8.898,3.245c-2.709,0.573-5.453,0.862-8.171,0.862
		c-0.38,0-0.758-0.006-1.137-0.018c-3.412-0.098-6.436-1.141-8.983-3.1c-2.489-1.913-4.526-4.336-6.053-7.202
		c-1.141-2.154-1.986-4.42-2.578-6.755c-0.791,1.3-1.609,2.585-2.471,3.837c-0.813,1.269-1.753,2.607-2.772,3.952
		c-1.025,1.35-2.133,2.67-3.291,3.92c-1.185,1.277-2.448,2.446-3.759,3.476c-1.364,1.069-2.844,1.907-4.399,2.49
		c-0.891,0.298-1.71,0.445-2.459,0.445c-0.93,0-1.751-0.228-2.461-0.68c-1.182-0.751-2.1-1.853-2.733-3.276
		c-0.587-1.321-1.006-2.8-1.245-4.391c-0.236-1.547-0.355-2.916-0.355-4.067c0-2.873,0.188-5.78,0.558-8.643
		c0.128-0.997,0.27-2.003,0.422-3.011c-0.61,0.981-1.226,1.95-1.842,2.899c-1.616,2.491-3.363,4.963-5.195,7.342
		c-1.599,1.975-3.594,4.087-5.944,6.301c-2.408,2.266-4.998,4.039-7.697,5.269c-2.791,1.274-5.583,1.693-8.293,1.248
		c-2.831-0.463-5.32-2.503-7.4-6.069c-1.716-3.049-2.797-6.366-3.224-9.874c-0.42-3.451-0.42-7.021,0-10.61
		c0.418-3.576,1.195-7.108,2.309-10.499c1.107-3.364,2.319-6.56,3.604-9.492c1.194-2.759,2.691-5.661,4.45-8.623
		c1.766-2.976,3.816-5.757,6.095-8.267c2.292-2.525,4.882-4.711,7.696-6.495c2.854-1.806,6.032-3.01,9.448-3.58
		c3.715-0.586,7.135,0.012,10.174,1.776c2.16,1.255,3.842,2.99,5.026,5.181c1.313-5.186,2.72-10.396,4.193-15.532
		c1.787-6.234,3.755-12.528,5.846-18.709c1.836-5.142,3.778-10.346,5.779-15.48c2.026-5.207,4.552-10.188,7.504-14.8
		c0.846-1.313,1.777-2.688,2.772-4.09c1.032-1.454,2.175-2.835,3.396-4.1c1.226-1.276,2.571-2.429,3.996-3.426
		c1.456-1.021,3.037-1.786,4.699-2.275c1.354-0.416,2.738-0.466,4.105-0.153c0.746,0.173,1.409,0.488,1.982,0.942
		c0.575,0.457,1.062,1.052,1.456,1.784c0.631,1.182,0.939,2.498,0.925,3.93c-0.006,0.477-0.047,0.968-0.124,1.469
		c-0.28,1.825-0.662,3.516-1.133,5.025c-1.83,6.862-4.371,13.622-7.538,20.047c-3.107,6.306-6.318,12.726-9.542,19.083
		c-2.614,5.041-5.226,10.008-7.763,14.77c-2.592,4.867-5.207,9.754-7.843,14.665c-1.242,3.989-2.499,8.152-3.738,12.375
		c-1.233,4.206-2.446,8.416-3.632,12.618l-2.885,9.898c-0.989,3.233-2.003,6.666-3.018,10.174c-0.98,3.381-1.566,6.852-1.744,10.231
		l0.001,0.616l0.231,1.335h0.001l0.396,1.028c0.21-0.042,0.427-0.279,0.653-0.355c0.372-0.124,0.707-0.263,1.023-0.421
		c0.217-0.108,0.37-0.188,0.455-0.251l0.199-0.144c1.871-1.021,3.465-2.398,4.736-4.095c1.346-1.795,2.414-3.631,3.695-5.461
		c1.856-2.891,4.06-5.967,5.12-9.16v-0.229h0.263c-0.015,0,0.11-0.948,0.112-1.48c0.008-1.602,0.162-3.149,0.347-4.754
		c0.418-3.63,1.253-7.205,2.413-10.682c1.156-3.469,2.558-6.719,4.134-9.684c1.497-2.622,3.287-5.265,5.319-7.896
		c2.049-2.657,4.395-5.065,6.964-7.168c1.291-1.056,2.647-2.011,4.055-2.863c1.407-0.851,2.868-1.596,4.372-2.229
		c3.044-1.285,6.276-1.936,9.604-1.936c3.23,0,6.048,0.853,8.374,2.533c2.276,1.651,4.091,3.734,5.393,6.196
		c1.294,2.443,2.096,5.16,2.383,8.074c0.285,2.909,0.042,5.742-0.722,8.422c-0.75,2.715-1.867,5.425-3.316,8.044
		c-1.461,2.638-3.252,5.024-5.323,7.097c-2.078,2.078-4.424,3.824-6.972,5.191c-2.605,1.4-5.486,2.157-8.564,2.252
		c-2.949,0.191-5.857-0.296-8.608-1.454c-2.089-0.88-3.879-2.131-5.345-3.731c-0.481,1.938-0.893,3.885-1.225,5.815
		c-0.449,2.594-0.72,5.27-0.809,7.949c0,1.391,0.091,2.822,0.267,4.224c0.167,1.346,0.527,2.596,1.069,3.719
		c0.533,1.109,1.26,2.085,2.158,2.9c0.868,0.79,2.002,1.352,3.371,1.673c2.921,0.688,5.887,0.645,8.817-0.13
		c2.985-0.79,5.837-2.061,8.475-3.775c2.665-1.731,5.164-3.804,7.429-6.158c2.281-2.367,4.252-4.747,5.861-7.07
		c1.242-1.866,2.4-3.819,3.432-5.788c1.034-1.981,2.016-4.036,2.917-6.106c0.28-0.75,0.706-1.58,1.247-2.417
		c0.787-1.215,2.078-1.538,3.547-0.891c0.641,0.231,0.944,0.635,1.086,0.936C-611.699,729.22-611.701,729.758-611.926,730.348z
		 M-579.99,626.925c-0.294,0.028-0.588,0.043-0.881,0.043c-1.562,0-3.088-0.42-4.548-1.253c-1.819-1.092-3.307-2.606-4.44-4.517
		c-1.089-1.832-1.959-3.833-2.587-5.948c-0.622-2.094-1.079-4.265-1.359-6.455c-0.279-2.18-0.476-4.123-0.584-5.771
		c-0.548-4.135-0.83-8.468-0.83-12.81c0-2.164,0.028-4.338,0.084-6.502c0.056-2.166,0.139-4.324,0.249-6.458
		c0.663-8.965,1.696-17.983,3.071-26.831c1.376-8.858,2.965-17.81,4.724-26.6c1.751-8.869,3.729-17.848,5.883-26.683
		c2.146-8.803,4.458-17.72,6.873-26.502c1-3.553,2.179-7.093,3.507-10.526c1.342-3.463,3.04-6.863,5.051-10.103
		c0.751-1.009,1.629-1.951,2.673-2.882c0.455-0.404,1.185-0.878,2.127-0.895c0.729-0.015,1.589,0.246,2.549,1.031
		c1.109,0.832,1.694,2.099,1.694,3.634v3.144c0,4.231-0.349,8.441-1.073,12.515c-0.719,4.028-1.511,8.078-2.389,12.04l-4.469,19.857
		c-0.88,3.514-1.712,7.093-2.479,10.662c-0.772,3.585-1.545,7.196-2.315,10.835c-1.656,7.618-3.312,15.147-4.967,22.595
		c-1.643,7.397-3.144,14.981-4.457,22.538c-0.877,4.381-1.682,8.819-2.397,13.224c-0.691,4.251-1.388,8.7-2.066,13.225
		c-0.275,1.979-0.551,3.988-0.826,6.025c-0.275,2.038-0.55,4.105-0.825,6.2c-0.535,4.051-0.373,8.104,0.481,12.046
		c0.209,1.151,0.627,2.402,1.25,3.75c0.512,1.11,1.307,1.706,2.497,1.878c1.349,0.189,2.616,0.003,3.872-0.576
		c1.357-0.627,2.633-1.371,3.793-2.212c3.11-2.147,5.923-4.88,8.38-8.136c2.514-3.338,4.897-6.69,7.078-9.961
		c4.913-7.533,9.458-15.403,13.504-23.386c4.061-8.013,7.949-16.233,11.557-24.436c7.361-16.482,14.256-33.356,20.494-50.157
		c6.247-16.824,12.255-34.041,17.855-51.17c0.221-0.56,0.428-1.262,0.638-2.148c0.287-1.223,0.841-2.088,1.648-2.569l0.124-0.063
		c1.146-0.495,2.252-0.339,3.113,0.431c0.865,0.781,1.146,1.795,0.795,2.857c-5.59,17.316-11.66,34.643-18.051,51.502
		c-6.382,16.835-13.292,33.828-20.535,50.511c-3.523,8.035-7.288,16.095-11.191,23.958c-3.915,7.885-8.243,15.732-12.867,23.328
		c-2.224,3.554-4.604,7.082-7.078,10.495c-2.507,3.451-5.365,6.675-8.493,9.583c-1.123,1.011-2.418,2.108-3.86,3.275
		c-1.495,1.206-3.103,2.198-4.782,2.955C-576.477,626.274-578.23,626.749-579.99,626.925z M-512.327,732.905
		c-1.88,4.848-4.087,9.591-6.565,14.107c-2.582,4.703-5.568,9.228-8.876,13.454c-4.152,5.259-8.99,10.073-14.38,14.312
		c-5.422,4.262-11.415,7.505-17.814,9.641c-0.82,0.273-1.824,0.615-3.007,1.025c-0.932,0.322-1.811,0.484-2.625,0.484
		c-0.376,0-0.737-0.035-1.086-0.104c-1.226-0.307-1.941-1.131-2.017-2.273c-0.077-1.121,0.513-2.017,1.62-2.467
		c0.497-0.291,1.057-0.556,1.667-0.789c0.534-0.206,1.01-0.434,1.412-0.675c3.11-1.561,6.007-3.371,8.68-5.42
		c2.706-2.075,5.307-4.311,7.73-6.646c4.851-4.762,9.089-10.095,12.591-15.841c3.236-5.311,6.091-10.927,8.497-16.716l-0.607,0.07
		l-14.916,2.327c-1.592,0.189-3.073,0.371-4.488,0.553c-1.406,0.183-2.877,0.363-4.417,0.545l-2.416,0.537
		c-1.479,0.25-2.516,0.089-3.228-0.482c-0.543-0.432-0.813-0.915-0.801-1.436c0.007-0.262,0.099-0.759,0.642-1.146
		c0.399-0.283,0.899-0.535,1.488-0.751c0.562-0.203,1.156-0.359,1.767-0.462c0.563-0.091,0.912-0.136,1.152-0.148
		c2.261-0.452,4.502-0.882,6.722-1.29c2.234-0.41,4.492-0.842,6.773-1.3l14.371-2.374c1.727-4.969,3.287-10.049,4.64-15.109
		c1.426-5.332,3.313-10.648,5.613-15.799c2.108-4.952,4.699-9.83,7.692-14.48c2.629-4.087,5.637-8.027,8.955-11.739
		c-1.729-0.247-3.448-0.555-5.132-0.919c-2.394-0.515-4.753-1.301-7.01-2.337c-2.986-1.304-5.769-2.993-8.253-5.011
		c-2.397-1.944-4.902-3.897-7.446-5.808c-3.136-2.327-6.597-4.49-10.284-6.428c-3.594-1.882-7.414-2.926-11.354-3.104
		c-3.801-0.173-7.346,0.68-10.535,2.532c-3.19,1.857-5.684,4.504-7.409,7.869c-1.83,3.486-2.69,7.257-2.559,11.212
		c0.13,3.948,1.294,7.618,3.461,10.909c2.338,3.289,5.206,5.808,8.507,7.454c0.599,0.341,1.424,0.627,2.509,0.875
		c1.481,0.344,2.495,0.976,3.014,1.878l0.055,0.11c0.447,1.046,0.271,2.046-0.499,2.814c-0.729,0.729-1.686,0.972-2.689,0.681
		l-0.146-0.054c-3.091-1.404-5.941-3.187-8.473-5.295c-2.557-2.131-4.667-4.604-6.272-7.347c-1.609-2.738-2.758-5.755-3.418-8.966
		c-0.666-3.23-0.667-6.646-0.002-10.151c0.658-3.586,1.932-6.875,3.783-9.773c1.841-2.879,4.118-5.37,6.765-7.404
		c2.645-2.03,5.659-3.609,8.96-4.694c3.3-1.083,6.789-1.587,10.374-1.492c3.556,0.095,7.065,0.663,10.437,1.69
		c3.352,1.026,6.603,2.394,9.665,4.063c2.704,1.493,5.204,3.168,7.433,4.978c2.191,1.782,4.485,3.549,6.817,5.248
		c2.623,1.993,5.402,3.837,8.275,5.497c2.685,1.556,5.535,2.871,8.479,3.915l0.054-0.039c2.49-2.301,5.174-4.424,7.976-6.308
		c2.851-1.913,5.948-3.499,9.211-4.71c1.219-0.468,2.675-0.899,4.317-1.274c1.69-0.385,3.384-0.531,5.03-0.436
		c1.687,0.1,3.274,0.505,4.722,1.201c1.591,0.769,2.718,2.132,3.358,4.049c0.632,2.002,0.595,3.802-0.106,5.367
		c-0.667,1.481-1.696,2.771-3.063,3.833c-1.309,1.019-2.801,1.875-4.433,2.544c-1.59,0.655-3.059,1.177-4.366,1.549
		c-3.366,0.842-6.818,1.405-10.29,1.683c-3.448,0.277-6.96,0.37-10.441,0.28c-2.48,3.558-4.696,7.367-6.593,11.333
		c-1.99,4.162-3.778,8.378-5.313,12.533c-1.638,4.368-3.18,8.806-4.581,13.195c-1.376,4.301-2.782,8.796-4.182,13.365
		c-0.273,0.914-0.55,1.812-0.826,2.685c-0.107,0.338-0.223,0.685-0.346,1.039l12.9-1.928l7.786-0.956
		c0.359-0.088,0.822-0.2,1.393-0.332c0.805-0.186,1.546-0.145,2.207,0.117c0.853,0.426,1.236,1.138,1.144,1.992
		c-0.098,0.854-0.629,1.477-1.42,1.669c-4.365,1.001-8.835,1.929-13.299,2.758C-503.947,731.462-508.203,732.214-512.327,732.905z
		 M-297.183,628.186c-0.282,1.825-0.663,3.516-1.134,5.025c-1.831,6.862-4.371,13.621-7.539,20.047
		c-3.106,6.306-6.316,12.726-9.541,19.083c-2.614,5.041-5.225,10.008-7.762,14.77c-2.591,4.867-5.206,9.754-7.844,14.665
		c-1.241,3.989-2.498,8.152-3.736,12.375c-1.234,4.206-2.447,8.416-3.635,12.618l-2.884,9.898
		c-0.988,3.233-2.003,6.666-3.019,10.174c-0.979,3.381-1.566,6.852-1.744,10.231l0.002,0.616l0.231,1.335h0.002l0.396,1.028
		c0.209-0.042,0.426-0.28,0.651-0.355c0.373-0.124,0.708-0.263,1.023-0.421c0.218-0.109,0.372-0.188,0.457-0.251l0.199-0.144
		c1.872-1.021,3.465-2.398,4.736-4.095c1.346-1.795,2.678-3.632,3.958-5.461c2.419-3.765,4.755-7.843,6.922-12.085
		c0.275-0.552,0.556-1.089,0.837-1.604c0.239-0.438,0.445-0.911,0.611-1.408c0.193-0.486,0.392-1.061,0.61-1.762
		c0.277-0.891,0.711-1.638,1.292-2.218c0.911-0.911,2.09-1.005,3.148-0.25c0.398,0.286,0.686,0.628,0.858,1.006
		c0.115,0.253,0.181,0.522,0.193,0.801c0.013,0.279-0.028,0.568-0.121,0.863c-0.047,0.147-0.108,0.295-0.181,0.444
		c-1.527,3.143-3.122,6.354-4.74,9.547c-1.612,3.179-3.46,6.289-5.492,9.246c-0.814,1.269-1.753,2.606-2.772,3.951
		c-1.025,1.351-2.133,2.671-3.292,3.921c-1.184,1.276-2.448,2.446-3.759,3.475c-1.363,1.07-2.844,1.908-4.399,2.491
		c-0.89,0.298-1.708,0.445-2.458,0.445c-0.929,0-1.751-0.228-2.461-0.68c-1.181-0.751-2.099-1.853-2.732-3.276
		c-0.588-1.321-1.007-2.8-1.246-4.391c-0.235-1.547-0.355-2.916-0.355-4.067c0-2.873,0.188-5.781,0.558-8.643
		c0.127-0.997,0.27-2.003,0.422-3.011c-0.611,0.981-1.227,1.95-1.842,2.899c-1.616,2.491-3.365,4.963-5.194,7.342
		c-1.6,1.975-3.596,4.087-5.944,6.301c-2.408,2.266-4.998,4.039-7.697,5.269c-2.792,1.274-5.583,1.692-8.295,1.247
		c-2.83-0.462-5.32-2.502-7.399-6.068c-1.694-3.013-2.769-6.289-3.206-9.752c-1.808,2.243-3.798,4.345-5.945,6.239
		c-2.395,2.112-5.125,3.943-8.118,5.438c-2.794,1.491-5.796,2.587-8.898,3.245c-2.709,0.573-5.452,0.861-8.169,0.861
		c-0.38,0-0.759-0.005-1.137-0.017c-3.413-0.098-6.437-1.141-8.984-3.1c-2.49-1.913-4.527-4.336-6.053-7.202
		c-0.906-1.711-1.628-3.491-2.189-5.32c-1.276,2.275-2.752,4.482-4.412,6.576c-1.672,2.14-3.656,4.219-5.896,6.177
		c-2.346,2.053-5.074,3.291-8.107,3.685c-0.46,0.058-0.905,0.084-1.337,0.084c-1.115,0-2.137-0.19-3.05-0.568
		c-1.253-0.525-2.313-1.294-3.147-2.285c-0.804-0.953-1.464-2.095-1.963-3.391c-0.483-1.252-0.827-2.577-1.021-3.936
		c-0.471-3.562-0.447-7.168,0.068-10.729c0.508-3.513,1.281-6.984,2.299-10.311c1.016-3.232,2.18-6.468,3.463-9.626
		c1.266-3.124,2.609-6.296,3.991-9.427c0.761-1.857,1.172-3.375,1.214-4.484c0.039-1.034-0.449-2.489-1.448-4.323
		c-0.697-1.304-1.601-2.603-2.685-3.862c-0.818-0.946-1.664-1.9-2.531-2.851c-1.236,2.707-2.455,5.378-3.659,8.018
		c-1.433,3.14-2.938,6.289-4.476,9.363l-2.735,5.746c-0.912,1.915-1.826,3.878-2.735,5.882c-0.243,0.66-0.607,1.68-1.061,2.994
		c-0.573,1.657-1.362,2.654-2.413,3.049c-1.035,0.444-2.061,0.206-2.771-0.665c-0.675-0.824-0.797-1.786-0.341-2.71l12.756-27.296
		c1.359-2.891,2.571-5.849,3.605-8.803c-1.709-2.118-3.127-4.365-4.223-6.69c-1.255-2.657-1.389-5.617-0.396-8.795
		c0.498-1.894,1.555-3.573,3.129-4.944c1.638-1.427,3.548-2.043,5.672-1.832c2.172,0.104,3.98,0.996,5.317,2.653
		c1.295,1.606,1.951,3.469,1.951,5.536c0,1.294-0.203,2.562-0.604,3.765c-0.33,0.989-0.7,1.988-1.102,2.978l1.089,2.902
		c0.482,1.726,0.961,3.364,1.461,5.002c0.486,1.594,1.091,3.161,1.798,4.66c0.632,1.446,1.331,2.846,2.09,4.184
		c0.803,1.421,1.496,2.901,2.06,4.403c0.968,2.523,1.291,5.323,0.952,8.312c-0.323,2.854-0.72,5.514-1.178,7.902
		c-0.737,3.497-1.572,6.936-2.49,10.236c-0.922,3.316-1.943,6.614-3.037,9.803c-0.182,0.634-0.597,1.746-1.258,3.353
		c-0.622,1.512-1.163,3.087-1.605,4.683c-0.43,1.54-0.646,2.969-0.646,4.244c0,1.249,0.473,1.378,0.728,1.446
		c1.102,0.315,2.115,0.317,3.114,0.011c1.087-0.334,2.147-0.844,3.154-1.517c1.023-0.682,1.979-1.484,2.84-2.388
		c0.874-0.921,1.626-1.826,2.231-2.689c1.877-2.681,3.556-5.542,4.991-8.5c0.357-0.741,0.707-1.488,1.044-2.243
		c-0.216-2.815-0.171-5.673,0.158-8.528c0.419-3.629,1.22-7.232,2.38-10.711c1.155-3.47,2.54-6.733,4.117-9.698
		c1.496-2.622,3.279-5.271,5.311-7.902c2.05-2.658,4.392-5.069,6.961-7.171c2.581-2.113,5.415-3.827,8.422-5.096
		c3.045-1.285,6.277-1.937,9.605-1.937c3.229,0,6.047,0.853,8.374,2.534c2.275,1.65,4.089,3.734,5.394,6.195
		c1.293,2.444,2.095,5.16,2.381,8.074c0.287,2.909,0.043,5.742-0.722,8.422c-0.75,2.715-1.866,5.425-3.317,8.044
		c-1.46,2.638-3.25,5.024-5.323,7.097c-2.077,2.078-4.423,3.824-6.972,5.191c-2.604,1.4-5.486,2.157-8.563,2.252
		c-2.951,0.191-5.858-0.296-8.609-1.454c-2.089-0.88-3.879-2.13-5.344-3.731c-0.483,1.938-0.894,3.886-1.226,5.815
		c-0.448,2.594-0.721,5.27-0.809,7.949c0.001,1.391,0.09,2.822,0.267,4.224c0.168,1.346,0.527,2.596,1.069,3.719
		c0.533,1.109,1.26,2.085,2.158,2.9c0.868,0.79,2.002,1.352,3.371,1.674c2.923,0.688,5.888,0.644,8.817-0.131
		c2.986-0.79,5.838-2.061,8.475-3.775c2.665-1.731,5.165-3.804,7.429-6.158c2.28-2.367,4.253-4.747,5.861-7.07
		c0.302-0.456,0.584-0.931,0.876-1.395c0.053-0.995,0.128-1.995,0.245-2.996c0.418-3.576,1.195-7.108,2.31-10.498
		c1.107-3.365,2.32-6.561,3.604-9.492c1.193-2.76,2.691-5.662,4.449-8.624c1.765-2.976,3.817-5.757,6.096-8.266
		c2.29-2.526,4.881-4.712,7.695-6.495c2.853-1.807,6.032-3.011,9.447-3.58c3.717-0.587,7.137,0.012,10.177,1.775
		c2.16,1.255,3.842,2.991,5.024,5.181c1.313-5.186,2.72-10.396,4.192-15.532c1.789-6.234,3.755-12.528,5.848-18.708
		c1.836-5.143,3.778-10.346,5.779-15.48c2.025-5.208,4.551-10.188,7.503-14.801c0.846-1.313,1.778-2.688,2.772-4.089
		c1.033-1.455,2.175-2.836,3.395-4.1c1.228-1.277,2.572-2.43,3.997-3.427c1.457-1.021,3.037-1.786,4.7-2.275
		c1.353-0.416,2.739-0.466,4.104-0.153c0.746,0.173,1.408,0.488,1.984,0.943c0.573,0.457,1.061,1.051,1.454,1.783
		c0.632,1.182,0.94,2.499,0.925,3.931C-297.067,627.193-297.107,627.684-297.183,628.186z M-294.344,598.904
		c-0.457,0-0.911-0.007-1.365-0.02c-4.068-0.117-7.672-1.359-10.707-3.695c-2.978-2.285-5.413-5.185-7.239-8.614
		c-2.037-3.846-3.356-7.974-3.922-12.273c-0.24-1.825-0.361-3.675-0.406-5.533c-2.276,2.771-4.772,5.407-7.42,7.833
		c-2.671,2.45-5.549,4.735-8.556,6.793c-2.836,1.945-5.739,3.856-8.636,5.687l-4.848,15.837c-2.753,8.257-5.679,16.563-8.707,24.714
		c-3.045,8.191-6.945,16.158-11.59,23.682c-1.998,3.33-4.346,6.554-6.97,9.569c-2.658,3.055-5.79,5.583-9.307,7.514
		c-1.842,1.037-3.841,1.771-5.933,2.181c-1.454,0.283-2.909,0.423-4.343,0.423c-0.613,0-1.222-0.024-1.825-0.077
		c-2.057-0.177-4.059-0.772-5.948-1.773c-1.889-1.004-3.558-2.405-4.965-4.164c-2.089-2.669-3.438-5.637-4.021-8.827
		c-0.567-3.13-0.627-6.333-0.172-9.521c0.451-3.159,1.278-6.325,2.458-9.412c1.173-3.074,2.565-5.943,4.138-8.528
		c3.453-5.904,7.815-11.144,12.955-15.559c5.073-4.359,10.508-8.477,16.152-12.238c2.445-1.561,4.845-3.075,7.223-4.567
		c2.262-1.421,4.6-2.866,7.016-4.339l3.197-11.51c0.606-2.188,1.235-4.394,1.881-6.595c-0.342,0.422-0.688,0.844-1.033,1.265
		c-1.566,1.9-3.204,3.707-4.868,5.37c-2.141,2.142-4.589,4.134-7.275,5.924c-2.805,1.87-5.885,2.875-9.155,2.988
		c-2.161,0.124-4.142-0.313-5.858-1.297c-1.66-0.946-3.103-2.208-4.284-3.75c-1.157-1.499-2.123-3.197-2.872-5.044
		c-0.739-1.813-1.288-3.663-1.632-5.5c-0.146-0.696-0.266-1.398-0.37-2.103c-0.637,1.364-1.279,2.715-1.939,4.037
		c-1.79,3.579-4,7.037-6.57,10.279c-2.009,2.567-4.393,5.064-7.082,7.419c-2.795,2.444-6.046,3.92-9.663,4.389
		c-0.544,0.068-1.072,0.102-1.582,0.102c-1.316,0-2.521-0.225-3.594-0.671c-1.479-0.617-2.728-1.523-3.713-2.694
		c-0.954-1.129-1.737-2.483-2.329-4.025c-0.577-1.493-0.987-3.074-1.218-4.698c-0.564-4.274-0.535-8.604,0.082-12.877
		c0.609-4.224,1.541-8.397,2.766-12.4c1.223-3.893,2.623-7.789,4.168-11.59c1.527-3.766,3.146-7.589,4.811-11.362
		c0.928-2.267,1.432-4.121,1.482-5.487c0.047-1.287-0.55-3.079-1.773-5.324c-0.848-1.584-1.944-3.162-3.265-4.698
		c-1.061-1.226-2.16-2.46-3.278-3.683c-1.539,3.366-3.056,6.688-4.551,9.966c-1.719,3.771-3.533,7.566-5.394,11.287l-3.299,6.93
		c-1.096,2.297-2.206,4.685-3.302,7.097c-0.301,0.812-0.74,2.044-1.287,3.63c-0.507,1.47-1.154,2.488-1.965,3.091
		c-1.2,2.41-2.438,4.796-3.74,7.096c-1.897,3.346-4.041,6.561-6.372,9.56c-2.346,3.018-4.979,5.82-7.83,8.335
		c-2.872,2.534-6.149,4.728-9.743,6.523c-3.359,1.792-6.959,3.107-10.677,3.895c-3.254,0.688-6.548,1.035-9.808,1.035
		c-0.456,0-0.908-0.008-1.363-0.021c-4.069-0.116-7.672-1.359-10.709-3.694c-2.976-2.285-5.411-5.185-7.238-8.615
		c-2.038-3.845-3.356-7.974-3.922-12.272c-0.56-4.262-0.587-8.635-0.084-13c0.503-4.361,1.465-8.692,2.859-12.871
		c1.391-4.173,3.056-8.096,4.95-11.661c1.794-3.142,3.938-6.327,6.385-9.499c2.465-3.194,5.277-6.092,8.358-8.611
		c3.097-2.534,6.497-4.592,10.104-6.112c3.644-1.537,7.512-2.317,11.497-2.317c3.85,0,7.204,1.013,9.971,3.012
		c2.717,1.97,4.882,4.46,6.437,7.398c1.547,2.921,2.505,6.17,2.85,9.656c0.342,3.481,0.051,6.87-0.863,10.074
		c-0.9,3.26-2.239,6.512-3.979,9.654c-1.753,3.164-3.901,6.027-6.383,8.509c-2.494,2.494-5.306,4.586-8.356,6.223
		c-3.11,1.672-6.553,2.578-10.231,2.69c-3.53,0.23-7.003-0.354-10.288-1.737c-2.62-1.104-4.846-2.696-6.642-4.75
		c-0.626,2.472-1.156,4.962-1.581,7.428c-0.542,3.138-0.871,6.374-0.979,9.616c0,1.692,0.109,3.429,0.324,5.127
		c0.204,1.646,0.645,3.178,1.309,4.554c0.656,1.364,1.548,2.563,2.653,3.563c1.075,0.979,2.475,1.675,4.162,2.069
		c3.558,0.84,7.17,0.787,10.738-0.157c3.623-0.959,7.084-2.499,10.281-4.578c3.229-2.099,6.256-4.609,8.997-7.458
		c2.761-2.867,5.146-5.745,7.09-8.555c1.505-2.259,2.905-4.618,4.151-7.002c1.253-2.4,2.439-4.883,3.524-7.377
		c0.335-0.9,0.843-1.887,1.488-2.883c0.114-0.179,0.24-0.338,0.374-0.48l8.076-17.345l5.297-11.254
		c1.658-3.529,3.137-7.141,4.396-10.751c-2.083-2.569-3.811-5.298-5.14-8.117c-1.491-3.155-1.648-6.669-0.467-10.447
		c0.591-2.251,1.842-4.239,3.707-5.862c1.929-1.679,4.172-2.403,6.676-2.157c2.564,0.121,4.69,1.172,6.263,3.119
		c1.528,1.898,2.304,4.099,2.304,6.539c0,1.537-0.24,3.041-0.716,4.472c-0.406,1.215-0.862,2.441-1.356,3.655l1.344,3.58
		c0.571,2.052,1.154,4.045,1.757,6.018c0.59,1.931,1.321,3.831,2.181,5.649c0.762,1.745,1.607,3.436,2.528,5.059
		c0.962,1.701,1.792,3.477,2.469,5.28c1.155,3.01,1.537,6.352,1.136,9.922c-0.39,3.442-0.867,6.642-1.419,9.511
		c-0.887,4.209-1.895,8.352-2.997,12.328c-1.111,3.995-2.343,7.968-3.658,11.808c-0.218,0.764-0.719,2.099-1.512,4.031
		c-0.756,1.833-1.41,3.74-1.945,5.672c-0.523,1.878-0.788,3.62-0.788,5.176c0,1.673,0.702,1.864,1.038,1.956
		c1.366,0.391,2.63,0.394,3.876,0.01c1.329-0.408,2.627-1.031,3.86-1.854c1.248-0.831,2.412-1.811,3.462-2.91
		c1.064-1.12,1.977-2.22,2.712-3.268c2.271-3.245,4.301-6.702,6.035-10.279c1.744-3.598,3.286-7.342,4.584-11.131l0.051-0.123
		c0.014-0.026,0.137-0.301,0.51-1.639c0.284-1.029,0.636-2.024,1.043-2.953c0.149-0.342,0.316-0.643,0.493-0.929
		c0.53-2.464,1.145-4.885,1.861-7.228c2.561-8.127,6.282-15.685,11.068-22.473c1.798-2.472,4.149-5.108,6.999-7.847
		c2.878-2.764,6.055-5.024,9.443-6.719c3.424-1.715,6.991-2.669,10.598-2.842c3.723-0.174,7.269,1.039,10.551,3.617
		c1.819,1.574,3.116,3.419,3.896,5.51c0.375,1.005,0.685,2.038,0.929,3.093c0.883-1.598,1.856-3.18,2.91-4.727
		c1.722-2.522,3.76-4.617,6.059-6.229c0.472-0.354,1.122-0.729,1.903-1.087c0.823-0.381,1.7-0.607,2.6-0.672
		c0.955-0.07,1.81,0.079,2.534,0.438c0.612,0.307,1.378,0.998,1.572,2.554c0.151,0.904-0.05,1.779-0.597,2.563
		c-0.388,0.552-0.877,0.954-1.459,1.199c-0.121,0.396-0.331,0.802-0.557,1.2c-0.426,0.742-0.692,1.221-0.797,1.433
		c-1.156,2.842-2.113,5.822-2.815,8.791c-0.722,3.055-1.534,6.159-2.41,9.23c-2.094,7.818-4.188,15.569-6.284,23.235
		c-1.826,6.678-3.718,13.463-5.634,20.212c0.645-0.449,1.315-0.919,2.008-1.417c2.74-1.863,5.41-3.898,7.956-6.066
		c2.528-2.151,4.906-4.558,7.069-7.151c1.085-1.304,2.095-2.64,2.998-3.971c0.91-1.339,1.749-2.772,2.494-4.263
		c0.155-0.396,0.395-0.815,0.691-1.228c0.533-2.811,1.237-5.597,2.145-8.313c1.39-4.173,3.055-8.096,4.95-11.66
		c1.792-3.143,3.937-6.328,6.385-9.5c2.464-3.194,5.278-6.091,8.359-8.61c3.097-2.535,6.496-4.592,10.103-6.113
		c3.645-1.537,7.512-2.316,11.498-2.316c3.848,0,7.203,1.013,9.969,3.012c2.718,1.969,4.883,4.459,6.438,7.397
		c1.547,2.922,2.505,6.171,2.848,9.656c0.343,3.481,0.052,6.871-0.862,10.074c-0.9,3.26-2.24,6.513-3.979,9.654
		c-1.754,3.164-3.901,6.027-6.384,8.509c-2.493,2.494-5.305,4.587-8.356,6.223c-3.109,1.673-6.552,2.578-10.229,2.69
		c-3.529,0.23-7.004-0.354-10.288-1.736c-2.62-1.104-4.846-2.697-6.643-4.75c-0.626,2.471-1.157,4.962-1.58,7.427
		c-0.544,3.139-0.871,6.375-0.979,9.616c0.002,1.692,0.11,3.429,0.324,5.128c0.205,1.646,0.645,3.177,1.309,4.554
		c0.656,1.363,1.549,2.562,2.652,3.562c1.077,0.979,2.475,1.676,4.164,2.07c3.557,0.84,7.17,0.786,10.737-0.158
		c3.625-0.959,7.084-2.498,10.282-4.578c3.229-2.099,6.254-4.608,8.997-7.458c2.759-2.866,5.145-5.744,7.09-8.555
		c1.504-2.259,2.904-4.618,4.15-7.002c1.255-2.399,2.44-4.883,3.524-7.377c0.336-0.899,0.844-1.886,1.488-2.883
		c0.114-0.179,0.24-0.336,0.373-0.48l8.076-17.345l5.298-11.253c1.657-3.529,3.137-7.142,4.396-10.751
		c-2.085-2.569-3.813-5.298-5.142-8.118c-1.49-3.154-1.646-6.669-0.465-10.447c0.59-2.25,1.841-4.238,3.707-5.862
		c1.927-1.679,4.172-2.403,6.676-2.157c2.563,0.121,4.689,1.172,6.262,3.119c1.529,1.899,2.303,4.099,2.303,6.54
		c0,1.536-0.24,3.04-0.716,4.471c-0.406,1.215-0.86,2.442-1.356,3.655l1.345,3.58c0.573,2.052,1.154,4.046,1.758,6.018
		c0.588,1.932,1.321,3.832,2.179,5.649c0.762,1.745,1.607,3.436,2.528,5.06c0.962,1.701,1.793,3.476,2.469,5.279
		c1.156,3.01,1.54,6.352,1.137,9.922c-0.391,3.442-0.867,6.642-1.419,9.512c-0.887,4.208-1.894,8.351-2.998,12.327
		c-1.11,3.996-2.342,7.968-3.658,11.808c-0.218,0.764-0.717,2.1-1.512,4.031c-0.755,1.834-1.409,3.74-1.943,5.672
		c-0.525,1.879-0.79,3.621-0.79,5.177c0,1.672,0.702,1.864,1.038,1.955c1.367,0.392,2.63,0.394,3.876,0.01
		c1.329-0.407,2.628-1.031,3.861-1.854c1.248-0.832,2.411-1.812,3.461-2.911c1.065-1.12,1.978-2.22,2.712-3.268
		c2.271-3.245,4.302-6.702,6.037-10.278c1.742-3.599,3.284-7.343,4.583-11.132l0.051-0.123c0.013-0.026,0.138-0.3,0.509-1.639
		c0.285-1.029,0.637-2.024,1.043-2.953c0.462-1.059,1.059-1.847,1.769-2.346c0.574-0.4,1.112-0.388,1.462-0.31
		c0.658,0.151,1.224,0.665,1.729,1.57c0.352,0.708,0.409,1.554,0.193,2.561c-0.178,0.827-0.445,1.692-0.797,2.57
		c-0.34,0.852-0.715,1.686-1.111,2.479c-0.438,0.873-0.602,1.351-0.663,1.599l-0.05,0.152c-1.551,3.761-3.231,7.458-4.996,10.989
		c-1.79,3.579-3.999,7.037-6.57,10.278c-2.009,2.567-4.393,5.065-7.082,7.419c-2.795,2.444-6.045,3.921-9.661,4.39
		c-0.545,0.067-1.073,0.102-1.582,0.102c-1.317,0-2.521-0.225-3.595-0.671c-1.479-0.617-2.727-1.524-3.713-2.695
		c-0.953-1.128-1.738-2.483-2.329-4.025c-0.577-1.493-0.988-3.074-1.218-4.697c-0.564-4.274-0.536-8.604,0.083-12.877
		c0.608-4.224,1.54-8.397,2.764-12.401c1.223-3.892,2.626-7.789,4.17-11.589c1.526-3.766,3.146-7.589,4.81-11.363
		c0.929-2.266,1.431-4.121,1.481-5.486c0.047-1.288-0.549-3.08-1.773-5.325c-0.847-1.584-1.944-3.162-3.265-4.697
		c-1.061-1.226-2.16-2.46-3.278-3.683c-1.539,3.365-3.055,6.687-4.551,9.966c-1.719,3.77-3.533,7.566-5.394,11.286l-3.299,6.93
		c-1.094,2.297-2.206,4.686-3.3,7.097c-0.302,0.813-0.74,2.045-1.289,3.63c-0.507,1.469-1.154,2.488-1.964,3.092
		c-1.199,2.41-2.437,4.795-3.74,7.095c-1.896,3.346-4.041,6.562-6.373,9.561c-2.346,3.017-4.979,5.819-7.829,8.335
		c-2.872,2.533-6.149,4.728-9.743,6.522c-3.357,1.792-6.96,3.108-10.677,3.896C-287.793,598.558-291.084,598.904-294.344,598.904z
		 M-142.598,731.048c-1.277,0.201-2.434,0.236-3.519,0.157c-3.723,1.231-7.606,1.547-11.377,1.849
		c-1.34,0.108-2.682,0.215-4.019,0.364c-4.896,0.542-9.293,0.808-13.491,0.808c-1.783,0-3.526-0.049-5.262-0.143
		c-2.753-0.151-12.228-0.991-18.577-5.468c-1.834-1.295-3.332-2.787-4.779-4.23c-2.053-2.045-3.991-3.978-6.751-5.258
		c-3.029-1.404-5.52-2.834-7.556-5.004c-0.833,0.258-1.678,0.479-2.513,0.693c-2.235,0.576-4.349,1.12-6.161,2.34
		c-1.701,1.146-3.158,2.629-4.699,4.194c-0.937,0.953-1.905,1.937-2.93,2.835c-1.492,1.308-3.104,2.597-4.658,3.844
		c-2.64,2.114-5.369,4.302-7.632,6.652c-7.389,7.688-13.917,13.912-21.761,19.306c-0.76,0.521-1.66,1.276-2.614,2.074
		c-2.859,2.394-6.329,5.297-9.777,5.298c-0.511,0-1.023-0.065-1.531-0.203l-0.821-0.225l0.041-0.85
		c0.134-2.802,2.971-5.311,5.249-7.325c0.522-0.462,1.012-0.894,1.413-1.285c2.861-2.788,5.785-5.526,9.201-8.622
		c3.817-3.457,8.028-6.434,12.102-9.313c3.757-2.656,7.642-5.402,11.16-8.493c0.766-0.672,1.572-1.363,2.403-2.072
		c3.699-3.161,7.893-6.747,10.37-10.543c0.938-1.437,1.229-2.968,1.176-4.568l-11.068-8.241c-0.416-0.145-0.833-0.288-1.246-0.43
		c-4.815-1.648-9.795-3.353-14.215-7.523c-1.474-1.393-2.93-2.813-4.386-4.235c-2.363-2.31-4.806-4.698-7.293-6.903
		c-0.696-0.621-1.784-1.356-2.936-2.139c-2.54-1.726-5.534-3.765-6.893-6.17c-1.51-0.601-2.984-1.251-4.392-1.998
		c-1.001-0.532-0.521-2.104,0.567-2.099c1.268,0.005,2.536,0.158,3.799,0.416l0.127-0.025c6.683-1.406,11.531-0.249,17.648,2.229
		c1.608,0.652,3.353,1.117,5.039,1.565c2.524,0.674,5.135,1.368,7.503,2.72c3.99,2.28,7.126,6.099,9.411,9.171
		c0.964,1.296,2.017,2.606,3.036,3.874c1.987,2.472,4.043,5.028,5.689,7.768c1.27,2.111,2.472,4.425,2.667,7.023
		c0.066,0.906-0.036,1.81-0.138,2.681c-0.002,0.008-0.002,0.015-0.003,0.022c0.27,0.983,0.49,2.043,0.653,3.203
		c2.031-0.552,3.778-2.808,5.343-4.829c0.584-0.754,1.137-1.466,1.688-2.073c3.151-3.468,5.909-6.655,8.435-9.749
		c3.869-4.746,6.784-8.649,7.888-13.185c-0.69-1.341-0.914-3.029-1.099-4.516c-0.122-0.983-0.237-1.911-0.46-2.545
		c-0.994-2.834-2.71-5.236-4.525-7.784c-1.197-1.68-2.437-3.417-3.456-5.296c-5.787-10.671-3.63-20.939-1.346-31.81l0.131-0.625
		c-0.468-0.945-0.924-1.896-1.349-2.858c-0.369-0.831,0.397-1.727,1.269-1.27c1.764,0.924,2.894,2.829,3.808,4.91
		c1.227,1.476,2.499,2.975,3.746,4.44c0.728,0.854,1.452,1.706,2.165,2.553c6.036,7.15,7.548,14.309,8.03,23.54
		c0.06,1.13,0.15,2.266,0.239,3.404c0.192,2.394,0.389,4.87,0.295,7.346c-0.095,2.511-0.567,5.01-1.298,6.857
		c-0.316,0.799-0.773,1.492-1.215,2.164c-0.354,0.536-0.682,1.056-0.916,1.582c-0.006,0.227-0.014,0.452-0.021,0.677
		c-0.007,0.181-0.013,0.362-0.019,0.544c0.782-0.787,1.575-1.949,2.218-2.89c0.496-0.729,0.965-1.415,1.413-1.94
		c1.4-1.64,2.52-3.061,3.135-5.16c0.484-1.653,0.152-3.802-0.169-5.879c-0.414-2.677-0.843-5.445,0.303-7.704l0.786-1.55
		l1.019,1.406c0.833,1.15,1.298,2.629,1.746,4.056c0.262,0.831,0.529,1.682,0.852,2.363c2.071-2.496,3.781-7.734,4.752-10.71
		c0.259-0.794,0.479-1.473,0.662-1.972l0.605-1.661l1.179,1.316c1.146,1.275,1.646,3.23,1.448,5.651
		c-0.173,2.135-0.878,4.388-1.936,6.409c6.834-3.31,18.122-6.914,22.817-4.081l1.39,0.838l-1.325,0.938
		c-8.198,5.792-17.27,9.678-26.959,11.548c-2.769,0.534-3.74,1.954-5.349,4.305c-0.315,0.461-0.645,0.943-1.008,1.442
		c-1.103,1.526-2.363,2.86-3.583,4.15c-0.501,0.529-1.009,1.065-1.506,1.618c0.1-0.02,0.199-0.037,0.301-0.056
		c1.936-0.357,3.91-0.711,5.431-0.406c5.117-3.294,10.057-1.648,15.258,0.106c0.696,0.234,1.404,0.473,2.126,0.706
		c1.764,0.564,3.5,0.806,5.339,1.058c1.409,0.196,2.867,0.396,4.364,0.759c4.221,1.018,7.762,3.272,10.824,6.895l0.639,0.752
		c1.365,1.605,2.946,3.472,4.232,5.354c0.957,0.643,1.887,1.302,2.78,1.968c1.002,0.749,0.875,2.902-0.736,2.718
		c-0.526-0.06-1.011-0.191-1.478-0.351c-0.6,0.124-1.199,0.196-1.795,0.196c-2.613,0-5.168-1.06-7.48-2.016
		c-0.669-0.278-1.327-0.553-1.974-0.794c-2.031-0.759-4.041-1.558-6.05-2.354c-2.755-1.094-5.602-2.227-8.447-3.228
		c-6.493-2.287-13.247-4.837-18.602-8.483c-0.984,0.217-1.986,0.329-2.969,0.434c-1.558,0.17-3.029,0.327-4.313,0.893
		c-2.116,0.937-3.799,3.186-5.282,5.179c-0.26,0.347-0.513,0.67-0.766,0.997c-5.191,6.781-11.079,12.626-16.497,17.644
		c2.305-0.615,4.675-1.311,6.964-1.13c2.348-0.87,4.607-1.458,6.756-1.458h0.037c1.561,0,3.101,0.539,4.588,0.92
		c1.763,0.45,3.426,1.017,4.938,0.762c0.97-0.162,1.933-0.467,2.952-0.788c1.151-0.365,2.341-0.74,3.618-0.933
		c2.566-0.384,5.313-0.301,8.64,0.264c8.241,1.398,16.409,4.634,22.999,9.111c1.151,0.783,2.308,1.548,3.459,2.31
		c3.692,2.444,7.496,4.966,10.967,7.971c1.125,0.169,1.952,0.347,3.084,0.817C-141.586,728.976-141.177,730.823-142.598,731.048z"/>
	<path fill="#FFFFFF" d="M-704.528,553.303c0.922,2.021,2.439,3.664,4.521,4.893c2.236,1.323,4.612,1.818,7.268,1.517
		c3.608-0.518,6.771-2.09,9.402-4.67c2.725-2.67,4.973-5.593,6.681-8.688c0.968-1.721,1.813-3.437,2.516-5.111
		c0.712-1.698,1.4-3.486,2.046-5.318c0.647-1.834,1.283-3.769,1.89-5.749c0.572-1.88,0.863-3.781,0.863-5.646
		c0-2.698-0.839-4.8-2.563-6.427c-1.72-1.621-3.921-2.312-6.726-2.112c-1.667,0.199-3.274,0.761-4.727,1.663
		c-1.506,0.932-2.907,2.098-4.166,3.459c-1.279,1.386-2.436,2.894-3.44,4.479c-1.046,1.652-2.009,3.195-2.888,4.622
		c-4.127,6.947-7.659,14.565-10.492,22.629L-704.528,553.303z"/>
	<path fill="#FFFFFF" d="M-423.376,731.046c1.82,1.076,3.751,1.477,5.912,1.234c2.95-0.426,5.54-1.711,7.693-3.822
		c2.247-2.2,4.1-4.611,5.507-7.165c0.8-1.417,1.497-2.835,2.077-4.22c0.591-1.406,1.16-2.889,1.695-4.402
		c0.534-1.515,1.062-3.116,1.564-4.76c0.469-1.54,0.707-3.098,0.707-4.628c0-2.185-0.677-3.884-2.068-5.198
		c-1.388-1.307-3.167-1.863-5.439-1.702c-1.346,0.16-2.654,0.617-3.837,1.354c-1.236,0.766-2.386,1.72-3.419,2.836
		c-1.051,1.141-2.004,2.381-2.831,3.689c-0.869,1.368-1.666,2.646-2.395,3.83c-3.417,5.752-6.341,12.058-8.685,18.73l-0.125,0.316
		C-426.265,728.765-425.069,730.046-423.376,731.046z"/>
	<path fill="#FFFFFF" d="M-470.401,667.262l0.007-0.001c1.491-0.35,2.963-0.817,4.371-1.39c1.353-0.551,2.595-1.3,3.692-2.229
		c0.858-0.703,1.439-1.631,1.793-2.849c0.192-0.658,0.244-1.535-1.05-2.485c-1.157-0.771-2.435-1.142-3.869-1.099
		c-1.539,0.043-3.098,0.326-4.635,0.839c-1.565,0.521-3.112,1.229-4.6,2.103c-1.517,0.892-2.822,1.746-3.881,2.541
		c-1.813,1.465-3.551,3.045-5.169,4.7c1.9,0.375,3.822,0.598,5.736,0.663C-475.51,668.14-472.949,667.877-470.401,667.262z"/>
	<path fill="#FFFFFF" d="M-12.045,457.374c-83.12-8.063-133.69-46.584-213.672-78.576c3.041-3.355,4.911-7.789,4.911-12.663
		c0-7.845-4.808-14.587-11.632-17.438c0.263-2.487,0.371-4.932,0.371-7.006c0-3.383-0.287-7.75-1.066-11.676
		c7.187-2.675,12.327-9.586,12.327-17.693c0-8.061-5.08-14.938-12.199-17.648c0.686-3.746,0.938-7.811,0.938-11.003
		c0-2.838-0.204-6.368-0.73-9.751c6.575-2.593,11.348-8.761,11.917-16.104c0.027-0.312,0.036-0.627,0.048-0.943
		c0.005-0.176,0.026-0.347,0.026-0.523c0-0.027-0.003-0.053-0.003-0.08c0-0.026,0.003-0.052,0.003-0.078
		c0-0.163-0.021-0.321-0.024-0.483c-0.011-0.326-0.022-0.652-0.049-0.974c-0.555-7.209-5.156-13.3-11.544-15.977
		c0.251-2.433,0.357-4.821,0.357-6.853c0-3.383-0.287-7.75-1.066-11.675c7.187-2.675,12.327-9.586,12.327-17.694
		c0-8.06-5.08-14.937-12.199-17.647c0.686-3.746,0.938-7.812,0.938-11.003c0-2.88-0.208-6.474-0.752-9.902
		c7.022-2.759,12.013-9.59,12.013-17.578c0-10.417-8.476-18.895-18.894-18.895s-18.894,8.478-18.894,18.895
		c0,7.988,4.99,14.82,12.013,17.578c-0.544,3.427-0.752,7.022-0.752,9.902c0,3.192,0.255,7.258,0.938,11.003
		c-7.119,2.71-12.199,9.587-12.199,17.647c0,8.107,5.142,15.019,12.327,17.694c-0.779,3.926-1.066,8.292-1.066,11.675
		c0,2.031,0.106,4.42,0.357,6.853c-6.388,2.677-10.989,8.768-11.544,15.977c-0.027,0.322-0.038,0.648-0.049,0.974
		c-0.004,0.162-0.024,0.32-0.024,0.483c0,0.026,0.003,0.052,0.003,0.078c0,0.027-0.003,0.053-0.003,0.08
		c0,0.177,0.021,0.348,0.026,0.523c0.012,0.316,0.021,0.632,0.048,0.943c0.568,7.342,5.341,13.51,11.916,16.104
		c-0.525,3.383-0.729,6.914-0.729,9.752c0,3.192,0.255,7.258,0.938,11.003c-7.119,2.71-12.199,9.587-12.199,17.648
		c0,8.107,5.142,15.018,12.327,17.693c-0.779,3.926-1.066,8.292-1.066,11.676c0,2.074,0.107,4.521,0.371,7.006
		c-6.824,2.851-11.632,9.593-11.632,17.438c0,0.199,0.023,0.391,0.03,0.588c-58.267-19.492-132.711-34.086-240.909-33.293
		c-108.408-0.796-183.088,13.929-241.655,33.546c0.012-0.281,0.042-0.557,0.042-0.841c0-7.845-4.81-14.587-11.633-17.438
		c0.263-2.487,0.371-4.932,0.371-7.006c0-3.383-0.287-7.75-1.067-11.676c7.186-2.675,12.329-9.586,12.329-17.693
		c0-8.061-5.082-14.938-12.2-17.648c0.684-3.746,0.938-7.811,0.938-11.003c0-2.838-0.204-6.368-0.73-9.751
		c6.575-2.593,11.349-8.761,11.917-16.103c0.026-0.313,0.037-0.629,0.048-0.946c0.005-0.175,0.026-0.346,0.026-0.522
		c0-0.027-0.003-0.053-0.003-0.08c0-0.026,0.003-0.052,0.003-0.078c0-0.163-0.021-0.32-0.024-0.482
		c-0.011-0.327-0.022-0.654-0.049-0.977c-0.555-7.208-5.157-13.299-11.545-15.975c0.251-2.434,0.357-4.822,0.357-6.853
		c0-3.383-0.287-7.75-1.067-11.675c7.186-2.675,12.329-9.586,12.329-17.694c0-8.06-5.082-14.937-12.2-17.647
		c0.684-3.746,0.938-7.812,0.938-11.003c0-2.88-0.208-6.474-0.752-9.902c7.022-2.759,12.014-9.59,12.014-17.578
		c0-10.417-8.478-18.895-18.895-18.895c-10.419,0-18.896,8.478-18.896,18.895c0,7.988,4.99,14.82,12.013,17.578
		c-0.543,3.427-0.752,7.022-0.752,9.902c0,3.192,0.256,7.258,0.938,11.003c-7.118,2.71-12.199,9.587-12.199,17.647
		c0,8.107,5.143,15.019,12.328,17.694c-0.78,3.926-1.067,8.292-1.067,11.675c0,2.031,0.106,4.421,0.357,6.853
		c-6.388,2.677-10.989,8.768-11.544,15.976c-0.027,0.322-0.038,0.648-0.049,0.974c-0.004,0.162-0.024,0.32-0.024,0.483
		c0,0.026,0.003,0.052,0.003,0.078c0,0.027-0.003,0.053-0.003,0.08c0,0.177,0.021,0.348,0.026,0.523
		c0.012,0.316,0.021,0.632,0.048,0.943c0.568,7.342,5.341,13.51,11.917,16.104c-0.525,3.382-0.73,6.914-0.73,9.752
		c0,3.192,0.256,7.258,0.938,11.003c-7.118,2.71-12.199,9.587-12.199,17.648c0,8.107,5.142,15.018,12.328,17.693
		c-0.78,3.926-1.067,8.292-1.067,11.676c0,2.074,0.108,4.521,0.371,7.006c-6.824,2.851-11.632,9.593-11.632,17.438
		c0,4.961,1.937,9.469,5.076,12.843c-80.067,31.957-131.145,70.349-214.159,78.396c-6.818,0.662-12.044,6.347-12.044,13.196v304.07
		c0,6.238,4.342,11.674,10.449,12.949c46.998,9.803,86.624,39.129,110.628,78.588c2.394,3.934,6.681,6.313,11.284,6.313h735.402
		c4.604,0,8.894-2.381,11.287-6.315c23.994-39.457,63.518-68.783,110.5-78.586C-4.343,786.314,0,780.879,0,774.641V470.57
		C-0.001,463.721-5.227,458.036-12.045,457.374z M-254.185,146.403c0-7.988,6.498-14.488,14.486-14.488s14.487,6.5,14.487,14.488
		c0,5.867-3.512,10.919-8.538,13.195c-1.167-4.176-3.043-7.343-5.949-7.343s-4.784,3.167-5.949,7.343
		C-250.676,157.322-254.185,152.271-254.185,146.403z M-239.699,183.638c-0.825,0-1.632,0.07-2.43,0.174
		c-0.467-2.62-0.797-5.922-0.797-9.929c0-3.446,0.245-6.368,0.61-8.789c0.858,0.12,1.727,0.203,2.616,0.203
		c0.891,0,1.758-0.083,2.616-0.203c0.364,2.421,0.61,5.343,0.61,8.789c0,4.006-0.332,7.31-0.797,9.929
		C-238.067,183.708-238.874,183.638-239.699,183.638z M-238.325,188.114c-0.492,1.473-0.992,2.431-1.374,2.844
		c-0.382-0.414-0.882-1.371-1.374-2.844c0.453-0.042,0.909-0.067,1.374-0.067S-238.778,188.072-238.325,188.114z M-241.417,160.779
		c0.595-2.129,1.246-3.46,1.718-3.97c0.472,0.51,1.124,1.841,1.718,3.97c-0.563,0.067-1.135,0.111-1.718,0.111
		S-240.854,160.846-241.417,160.779z M-254.186,202.534c0-5.987,3.65-11.139,8.844-13.342c1.18,3.66,2.979,6.319,5.644,6.319
		s4.464-2.66,5.644-6.319c5.192,2.204,8.843,7.355,8.843,13.342c0,6.069-3.755,11.27-9.06,13.423
		c-1.18-3.327-2.921-5.682-5.427-5.682s-4.247,2.356-5.427,5.682C-250.43,213.804-254.186,208.603-254.186,202.534z
		 M-239.699,237.295c-1.018,0-2.009,0.104-2.984,0.259c-0.148-1.702-0.243-3.577-0.243-5.652c0-4.369,0.391-7.91,0.926-10.628
		c0.756,0.092,1.521,0.155,2.301,0.155s1.545-0.063,2.301-0.155c0.535,2.718,0.926,6.259,0.926,10.628
		c0,2.075-0.094,3.95-0.242,5.652C-237.689,237.398-238.681,237.295-239.699,237.295z M-237.313,242.073
		c-0.716,3.877-1.727,6.191-2.386,6.903c-0.661-0.712-1.67-3.026-2.386-6.903c0.778-0.128,1.571-0.213,2.386-0.213
		S-238.092,241.945-237.313,242.073z M-240.822,216.964c0.407-1.072,0.806-1.793,1.123-2.135c0.317,0.341,0.716,1.063,1.123,2.135
		c-0.371,0.029-0.743,0.059-1.123,0.059S-240.451,216.994-240.822,216.964z M-254.135,257.373c-0.012-0.171-0.02-0.342-0.026-0.515
		c-0.009-0.201-0.021-0.4-0.022-0.604c0-0.125,0.009-0.247,0.013-0.371c0.005-0.246,0.02-0.489,0.037-0.732
		c0.42-5.104,3.498-9.458,7.843-11.689c1.066,5.446,3.076,10.069,6.591,10.069s5.523-4.623,6.591-10.069
		c4.354,2.235,7.437,6.605,7.846,11.723c0.013,0.188,0.023,0.377,0.028,0.567c0.007,0.176,0.019,0.351,0.019,0.528
		c-0.001,0.145-0.011,0.287-0.016,0.431c-0.006,0.232-0.019,0.463-0.035,0.692c-0.446,5.343-3.808,9.865-8.483,11.981
		c-1.167-4.176-3.043-7.342-5.949-7.342s-4.784,3.167-5.949,7.342C-250.334,267.265-253.699,262.729-254.135,257.373z
		 M-239.699,293.426c-0.825,0-1.632,0.07-2.43,0.174c-0.467-2.62-0.797-5.922-0.797-9.929c0-3.377,0.237-6.243,0.59-8.635
		c0.864,0.122,1.739,0.206,2.636,0.206s1.772-0.084,2.636-0.206c0.352,2.392,0.59,5.258,0.59,8.635c0,4.006-0.332,7.31-0.797,9.929
		C-238.067,293.496-238.874,293.426-239.699,293.426z M-238.325,297.902c-0.492,1.473-0.992,2.431-1.374,2.844
		c-0.382-0.414-0.882-1.371-1.374-2.844c0.453-0.042,0.909-0.068,1.374-0.068S-238.778,297.86-238.325,297.902z M-241.417,270.566
		c0.595-2.129,1.246-3.46,1.718-3.971c0.472,0.511,1.124,1.841,1.718,3.971c-0.563,0.066-1.135,0.111-1.718,0.111
		S-240.854,270.633-241.417,270.566z M-254.186,312.322c0-5.987,3.65-11.139,8.844-13.342c1.18,3.66,2.979,6.319,5.644,6.319
		s4.464-2.659,5.644-6.319c5.192,2.204,8.843,7.355,8.843,13.342c0,6.068-3.755,11.269-9.06,13.423
		c-1.18-3.327-2.921-5.682-5.427-5.682s-4.247,2.356-5.427,5.682C-250.43,323.592-254.186,318.39-254.186,312.322z
		 M-239.699,347.242c-1.013,0-2.001,0.103-2.972,0.255c-0.156-1.742-0.255-3.67-0.255-5.807c0-4.369,0.391-7.91,0.926-10.628
		c0.756,0.092,1.521,0.155,2.301,0.155s1.545-0.063,2.301-0.155c0.535,2.718,0.926,6.259,0.926,10.628
		c0,2.137-0.099,4.064-0.254,5.807C-237.698,347.344-238.686,347.242-239.699,347.242z M-237.313,351.86
		c-0.716,3.877-1.727,6.191-2.386,6.904c-0.661-0.713-1.67-3.025-2.386-6.904c0.778-0.128,1.571-0.213,2.386-0.213
		S-238.092,351.731-237.313,351.86z M-240.822,326.752c0.407-1.072,0.806-1.793,1.123-2.135c0.317,0.34,0.716,1.063,1.123,2.135
		c-0.371,0.028-0.743,0.058-1.123,0.058S-240.451,326.78-240.822,326.752z M-246.29,353.249c1.066,5.447,3.076,10.069,6.591,10.069
		s5.523-4.623,6.591-10.069c4.681,2.404,7.896,7.271,7.896,12.886c0,4.344-1.931,8.237-4.968,10.895
		c-7.653-2.995-15.582-5.925-23.831-8.761c-0.104-0.698-0.175-1.407-0.175-2.134C-254.186,360.52-250.97,355.652-246.29,353.249z
		 M-774.467,146.403c0-7.988,6.498-14.488,14.488-14.488c7.988,0,14.486,6.5,14.486,14.488c0,5.867-3.511,10.919-8.538,13.195
		c-1.166-4.176-3.042-7.343-5.948-7.343c-2.907,0-4.784,3.167-5.95,7.343C-770.956,157.322-774.467,152.271-774.467,146.403z
		 M-759.98,183.638c-0.826,0-1.633,0.07-2.43,0.174c-0.466-2.62-0.797-5.922-0.797-9.929c0-3.446,0.246-6.368,0.611-8.789
		c0.856,0.12,1.726,0.203,2.615,0.203s1.759-0.083,2.615-0.203c0.365,2.421,0.611,5.343,0.611,8.789c0,4.006-0.332,7.31-0.797,9.929
		C-758.347,183.708-759.155,183.638-759.98,183.638z M-758.605,188.114c-0.492,1.473-0.992,2.431-1.373,2.844
		c-0.383-0.414-0.883-1.371-1.375-2.844c0.453-0.042,0.91-0.067,1.375-0.067C-759.516,188.047-759.059,188.072-758.605,188.114z
		 M-761.699,160.779c0.595-2.129,1.246-3.46,1.719-3.97c0.474,0.51,1.124,1.841,1.719,3.97c-0.564,0.067-1.136,0.111-1.719,0.111
		S-761.135,160.846-761.699,160.779z M-774.467,202.534c0-5.987,3.651-11.139,8.843-13.342c1.181,3.66,2.98,6.319,5.645,6.319
		s4.464-2.66,5.645-6.319c5.192,2.204,8.843,7.355,8.843,13.342c-0.001,6.069-3.756,11.27-9.061,13.423
		c-1.181-3.327-2.921-5.682-5.427-5.682c-2.507,0-4.247,2.356-5.427,5.682C-770.712,213.804-774.467,208.603-774.467,202.534z
		 M-759.979,237.295c-1.018,0-2.009,0.104-2.983,0.259c-0.15-1.703-0.244-3.577-0.244-5.652c0-4.369,0.392-7.91,0.926-10.628
		c0.756,0.092,1.521,0.155,2.301,0.155s1.546-0.063,2.301-0.155c0.534,2.718,0.926,6.259,0.926,10.628
		c0,2.075-0.093,3.95-0.243,5.652C-757.97,237.398-758.962,237.295-759.979,237.295z M-757.594,242.073
		c-0.715,3.877-1.726,6.191-2.385,6.903c-0.661-0.712-1.672-3.026-2.387-6.903c0.778-0.128,1.572-0.213,2.387-0.213
		C-759.166,241.86-758.372,241.945-757.594,242.073z M-761.101,216.964c0.407-1.072,0.806-1.793,1.123-2.135
		c0.315,0.341,0.714,1.063,1.121,2.135c-0.371,0.029-0.743,0.059-1.121,0.059C-760.359,217.022-760.731,216.994-761.101,216.964z
		 M-774.416,257.373c-0.012-0.171-0.02-0.342-0.026-0.515c-0.009-0.201-0.021-0.4-0.022-0.604c0-0.125,0.009-0.247,0.013-0.371
		c0.005-0.246,0.02-0.489,0.037-0.732c0.42-5.104,3.499-9.458,7.844-11.689c1.066,5.446,3.076,10.069,6.59,10.069
		s5.523-4.623,6.59-10.069c4.355,2.235,7.438,6.605,7.848,11.723c0.013,0.188,0.023,0.377,0.028,0.567
		c0.007,0.176,0.019,0.351,0.019,0.528c-0.001,0.145-0.011,0.287-0.016,0.431c-0.006,0.232-0.019,0.463-0.035,0.692
		c-0.446,5.343-3.807,9.865-8.483,11.981c-1.166-4.176-3.042-7.342-5.948-7.342c-2.907,0-4.784,3.167-5.95,7.342
		C-770.615,267.265-773.98,262.729-774.416,257.373z M-759.98,293.426c-0.826,0-1.633,0.07-2.43,0.174
		c-0.466-2.62-0.797-5.922-0.797-9.929c0-3.377,0.238-6.243,0.591-8.635c0.864,0.122,1.74,0.206,2.637,0.206
		c0.896,0,1.771-0.084,2.633-0.206c0.353,2.392,0.591,5.257,0.591,8.634c0,4.006-0.332,7.31-0.797,9.929
		C-758.347,293.496-759.155,293.426-759.98,293.426z M-758.605,297.902c-0.492,1.473-0.992,2.431-1.373,2.844
		c-0.383-0.414-0.883-1.371-1.375-2.844c0.453-0.042,0.91-0.068,1.375-0.068C-759.516,297.833-759.059,297.86-758.605,297.902z
		 M-761.699,270.566c0.595-2.129,1.246-3.46,1.719-3.971c0.474,0.511,1.124,1.841,1.719,3.971c-0.564,0.066-1.136,0.111-1.719,0.111
		S-761.135,270.633-761.699,270.566z M-774.467,312.322c0-5.987,3.651-11.139,8.843-13.342c1.181,3.66,2.98,6.319,5.645,6.319
		s4.464-2.659,5.645-6.319c5.192,2.204,8.843,7.355,8.843,13.342c-0.001,6.068-3.756,11.269-9.061,13.423
		c-1.181-3.327-2.921-5.682-5.427-5.682c-2.507,0-4.247,2.356-5.427,5.682C-770.712,323.592-774.467,318.39-774.467,312.322z
		 M-759.979,347.242c-1.014,0-2.001,0.103-2.971,0.255c-0.158-1.742-0.256-3.67-0.256-5.807c0-4.369,0.392-7.91,0.926-10.628
		c0.756,0.092,1.521,0.155,2.301,0.155s1.546-0.063,2.301-0.155c0.534,2.718,0.926,6.259,0.926,10.628
		c0,2.137-0.098,4.064-0.255,5.807C-757.979,347.344-758.966,347.242-759.979,347.242z M-757.594,351.86
		c-0.715,3.877-1.726,6.191-2.385,6.904c-0.661-0.713-1.672-3.025-2.387-6.904c0.778-0.128,1.572-0.213,2.387-0.213
		C-759.166,351.647-758.372,351.731-757.594,351.86z M-761.101,326.752c0.407-1.072,0.806-1.793,1.123-2.135
		c0.315,0.34,0.714,1.063,1.121,2.135c-0.371,0.028-0.743,0.058-1.121,0.058C-760.359,326.809-760.731,326.78-761.101,326.752z
		 M-774.468,366.135c0-5.615,3.216-10.482,7.897-12.886c1.066,5.447,3.076,10.069,6.59,10.069s5.523-4.623,6.59-10.069
		c4.682,2.404,7.897,7.271,7.897,12.886c0,0.818-0.084,1.616-0.215,2.397c-8.162,2.809-16.013,5.708-23.599,8.672
		C-772.459,374.544-774.468,370.571-774.468,366.135z M-52.719,758.706c-39.244,9.07-70.098,36.02-90.567,70.286
		c-2.375,3.979-6.694,6.385-11.328,6.385h-687.2c-4.597,0-8.894-2.364-11.275-6.294c-20.819-34.365-54.576-61.387-95.169-70.42
		c-6.064-1.352-10.384-6.718-10.384-12.933V500.348c0-6.785,5.126-12.495,11.878-13.178
		c130.657-13.21,187.655-113.284,437.809-113.276c2.444,0,4.914,0.008,7.394,0.026c2.502-0.019,4.959-0.026,7.425-0.026
		c250.611,0,311.02,99.935,439.757,113.25c6.782,0.702,11.962,6.366,11.962,13.187v245.462h0.001
		C-42.419,751.974-46.698,757.313-52.719,758.706z"/>
</svg>
